<svg width="216" height="216" viewBox="0 0 216 216" fill="none" xmlns="http://www.w3.org/2000/svg">
<path d="M108 8C163.228 8 208 52.7715 208 108C208 163.228 163.228 208 108 208C52.7715 208 8 163.228 8 108C8 52.7715 52.7715 8 108 8Z" stroke="#34CAA5" stroke-width="15"/>
<path d="M173.5 183L170.226 135.349C169.536 125.299 161.182 117.5 151.109 117.5H133.866C129.687 117.5 126.681 113.483 127.861 109.474V109.474C127.953 109.158 128.071 108.851 128.212 108.554L134.708 94.8774C144.642 73.9641 128.88 49.9619 105.741 50.7677V50.7677C82.8462 51.5651 68.7605 76.1382 79.6426 96.297L85.7659 107.64C86.2477 108.533 86.5 109.531 86.5 110.545V110.545C86.5 113.859 83.8603 116.57 80.5474 116.659L66.2675 117.04C56.2583 117.306 47.8617 124.671 46.2921 134.56L39 180.5" stroke="#34CAA5" stroke-width="15"/>
</svg>
