<svg width="226" height="226" viewBox="0 0 226 226" fill="none" xmlns="http://www.w3.org/2000/svg">
<path d="M113 13C168.228 13 213 57.7715 213 113C213 168.228 168.228 213 113 213C57.7715 213 13 168.228 13 113C13 57.7715 57.7715 13 113 13Z" stroke="#34CAA5" stroke-width="25"/>
<path d="M178.5 188L175.226 140.349C174.536 130.299 166.182 122.5 156.109 122.5H138.866C134.687 122.5 131.681 118.483 132.861 114.474V114.474C132.953 114.158 133.071 113.851 133.212 113.554L139.708 99.8774C149.642 78.9641 133.88 54.9619 110.741 55.7677V55.7677C87.8462 56.5651 73.7605 81.1382 84.6426 101.297L90.7659 112.64C91.2477 113.533 91.5 114.531 91.5 115.545V115.545C91.5 118.859 88.8603 121.57 85.5474 121.659L71.2675 122.04C61.2583 122.306 52.8617 129.671 51.2921 139.56L44 185.5" stroke="#34CAA5" stroke-width="25"/>
</svg>
